<svg viewBox="335 312.4622 380 121.0756" width="5000" height="1593.1" xmlns="http://www.w3.org/2000/svg" xmlns:xlink="http://www.w3.org/1999/xlink" preserveAspectRatio="none"><defs></defs><style>.aIptOCySncolors-0 {fill:#E35F21;fill-opacity:1;}.aIptOCySncolors-1 {fill:#EEF8F7;fill-opacity:1;}.aIptOCySncolors-2 {fill:#FAAB05;fill-opacity:1;}.aIptOCySncolors-3 {fill:#4D4D4D;fill-opacity:1;}.aIptOCySncolors-4 {fill:#6B6B6A;fill-opacity:1;}.aIptOCySncolors-5 {fill:#9E9E9E;fill-opacity:1;}.aIptOCySncolors-6 {fill:#FFD647;fill-opacity:1;}.aIptOCySncolors-7 {fill:#8C0303;fill-opacity:1;}.companyName {fill:#EEF8F7;fill-opacity:1;}.icon3-str {stroke:#FAAB05;stroke-opacity:1;}.text {fill:#EEF8F7;fill-opacity:1;}</style><g opacity="1" transform="rotate(0 335 312.4622)">
<svg width="107.2585" height="121.0756" x="335" y="312.4622" version="1.1" preserveAspectRatio="none" viewBox="7.700000286102295 3.0250000953674316 83.60501861572266 94.37499237060548">
  <g transform="matrix(1 0 0 1 0 0)" class="aIptOCySncolors-0"><path d="M87.8,24L53.1,4c-2.2-1.3-5-1.3-7.2,0L11.3,24c-2.2,1.3-3.6,3.7-3.6,6.2v40c0,2.6,1.4,5,3.6,6.2l34.6,20  c1.1,0.6,2.3,1,3.6,1s2.5-0.3,3.6-1l34.6-20c2.2-1.3,3.6-3.7,3.6-6.2v-40C91.4,27.6,90,25.2,87.8,24z M37.1,58.6l-11.1-9l11.2-8.1  l2.5,3.4l-6.7,4.9l6.8,5.5L37.1,58.6z M46.9,64.9l-4-1.4l9.7-28.2l4,1.4L46.9,64.9z M62,58.6l-2.6-3.3l6.8-5.5l-6.7-4.9l2.5-3.4  l11.2,8.1L62,58.6z"></path></g>
</svg>
</g><g opacity="1" transform="rotate(0 454.8487 396.3967)">
<svg width="182.6262" height="16.1575" x="454.8487" y="396.3967" version="1.1" preserveAspectRatio="none" viewBox="1.48 -29.68 425.44 37.64">
  <g transform="matrix(1 0 0 1 0 0)" class="text"><path id="id-6izo4zJp16" d="M40.16-28L43-28L33.56 0L30.44 0L22.24-23.88L14 0L10.92 0L1.48-28L4.52-28L12.60-3.92L20.96-28L23.72-28L31.96-3.80L40.16-28Z M68.56-10.52L68.52-9.64L50.92-9.64Q51.16-6.36 53.44-4.34Q55.72-2.32 59.20-2.32L59.20-2.32Q61.16-2.32 62.80-3.02Q64.44-3.72 65.64-5.08L65.64-5.08L67.24-3.24Q65.84-1.56 63.74-0.68Q61.64 0.20 59.12 0.20L59.12 0.20Q55.88 0.20 53.38-1.18Q50.88-2.56 49.48-5Q48.08-7.44 48.08-10.52L48.08-10.52Q48.08-13.60 49.42-16.04Q50.76-18.48 53.10-19.84Q55.44-21.20 58.36-21.20L58.36-21.20Q61.28-21.20 63.60-19.84Q65.92-18.48 67.24-16.06Q68.56-13.64 68.56-10.52L68.56-10.52ZM58.36-18.76Q55.32-18.76 53.26-16.82Q51.20-14.88 50.92-11.76L50.92-11.76L65.84-11.76Q65.56-14.88 63.50-16.82Q61.44-18.76 58.36-18.76L58.36-18.76Z M89.20-21.20Q92.16-21.20 94.56-19.86Q96.96-18.52 98.32-16.08Q99.68-13.64 99.68-10.52L99.68-10.52Q99.68-7.40 98.32-4.96Q96.96-2.52 94.56-1.16Q92.16 0.20 89.20 0.20L89.20 0.20Q86.56 0.20 84.46-0.92Q82.36-2.04 81.08-4.16L81.08-4.16L81.08 0L78.36 0L78.36-29.68L81.20-29.68L81.20-17.04Q82.52-19.08 84.58-20.14Q86.64-21.20 89.20-21.20L89.20-21.20ZM89.00-2.32Q91.20-2.32 93-3.34Q94.80-4.36 95.82-6.24Q96.84-8.12 96.84-10.52L96.84-10.52Q96.84-12.92 95.82-14.80Q94.80-16.68 93-17.70Q91.20-18.72 89.00-18.72L89.00-18.72Q86.76-18.72 84.98-17.70Q83.20-16.68 82.18-14.80Q81.16-12.92 81.16-10.52L81.16-10.52Q81.16-8.12 82.18-6.24Q83.20-4.36 84.98-3.34Q86.76-2.32 89.00-2.32L89.00-2.32Z M130 0L130-25.44L120.16-25.44L120.16-28L142.80-28L142.80-25.44L132.96-25.44L132.96 0L130 0Z M167.08-10.52L167.04-9.64L149.44-9.64Q149.68-6.36 151.96-4.34Q154.24-2.32 157.72-2.32L157.72-2.32Q159.68-2.32 161.32-3.02Q162.96-3.72 164.16-5.08L164.16-5.08L165.76-3.24Q164.36-1.56 162.26-0.68Q160.16 0.20 157.64 0.20L157.64 0.20Q154.40 0.20 151.90-1.18Q149.40-2.56 148.00-5Q146.60-7.44 146.60-10.52L146.60-10.52Q146.60-13.60 147.94-16.04Q149.28-18.48 151.62-19.84Q153.96-21.20 156.88-21.20L156.88-21.20Q159.80-21.20 162.12-19.84Q164.44-18.48 165.76-16.06Q167.08-13.64 167.08-10.52L167.08-10.52ZM156.88-18.76Q153.84-18.76 151.78-16.82Q149.72-14.88 149.44-11.76L149.44-11.76L164.36-11.76Q164.08-14.88 162.02-16.82Q159.96-18.76 156.88-18.76L156.88-18.76Z M185.60 0.20Q182.48 0.20 180.02-1.16Q177.56-2.52 176.16-4.98Q174.76-7.44 174.76-10.52L174.76-10.52Q174.76-13.60 176.16-16.04Q177.56-18.48 180.02-19.84Q182.48-21.20 185.60-21.20L185.60-21.20Q188.32-21.20 190.46-20.14Q192.60-19.08 193.84-17.04L193.84-17.04L191.72-15.60Q190.68-17.16 189.08-17.94Q187.48-18.72 185.60-18.72L185.60-18.72Q183.32-18.72 181.50-17.70Q179.68-16.68 178.66-14.80Q177.64-12.92 177.64-10.52L177.64-10.52Q177.64-8.08 178.66-6.22Q179.68-4.36 181.50-3.34Q183.32-2.32 185.60-2.32L185.60-2.32Q187.48-2.32 189.08-3.08Q190.68-3.84 191.72-5.40L191.72-5.40L193.84-3.96Q192.60-1.92 190.44-0.86Q188.28 0.20 185.60 0.20L185.60 0.20Z M213.80-21.20Q217.76-21.20 220.10-18.90Q222.44-16.60 222.44-12.20L222.44-12.20L222.44 0L219.60 0L219.60-11.92Q219.60-15.20 217.96-16.92Q216.32-18.64 213.28-18.64L213.28-18.64Q209.88-18.64 207.90-16.62Q205.92-14.60 205.92-11.04L205.92-11.04L205.92 0L203.08 0L203.08-29.68L205.92-29.68L205.92-17.36Q207.08-19.20 209.12-20.20Q211.16-21.20 213.80-21.20L213.80-21.20Z M244.88-21.20Q248.84-21.20 251.18-18.90Q253.52-16.60 253.52-12.20L253.52-12.20L253.52 0L250.68 0L250.68-11.92Q250.68-15.20 249.04-16.92Q247.40-18.64 244.36-18.64L244.36-18.64Q240.96-18.64 238.98-16.62Q237.00-14.60 237.00-11.04L237.00-11.04L237.00 0L234.16 0L234.16-21.04L236.88-21.04L236.88-17.16Q238.04-19.08 240.10-20.14Q242.16-21.20 244.88-21.20L244.88-21.20Z M273.92 0.20Q270.88 0.20 268.44-1.18Q266-2.56 264.60-5Q263.20-7.44 263.20-10.52L263.20-10.52Q263.20-13.60 264.60-16.04Q266-18.48 268.44-19.84Q270.88-21.20 273.92-21.20L273.92-21.20Q276.96-21.20 279.40-19.84Q281.84-18.48 283.22-16.04Q284.60-13.60 284.60-10.52L284.60-10.52Q284.60-7.44 283.22-5Q281.84-2.56 279.40-1.18Q276.96 0.20 273.92 0.20L273.92 0.20ZM273.92-2.32Q276.16-2.32 277.94-3.34Q279.72-4.36 280.72-6.24Q281.72-8.12 281.72-10.52L281.72-10.52Q281.72-12.92 280.72-14.80Q279.72-16.68 277.94-17.70Q276.16-18.72 273.92-18.72L273.92-18.72Q271.68-18.72 269.90-17.70Q268.12-16.68 267.10-14.80Q266.08-12.92 266.08-10.52L266.08-10.52Q266.08-8.12 267.10-6.24Q268.12-4.36 269.90-3.34Q271.68-2.32 273.92-2.32L273.92-2.32Z M294.40 0L294.40-29.68L297.24-29.68L297.24 0L294.40 0Z M317.76 0.20Q314.72 0.20 312.28-1.18Q309.84-2.56 308.44-5Q307.04-7.44 307.04-10.52L307.04-10.52Q307.04-13.60 308.44-16.04Q309.84-18.48 312.28-19.84Q314.72-21.20 317.76-21.20L317.76-21.20Q320.80-21.20 323.24-19.84Q325.68-18.48 327.06-16.04Q328.44-13.60 328.44-10.52L328.44-10.52Q328.44-7.44 327.06-5Q325.68-2.56 323.24-1.18Q320.80 0.20 317.76 0.20L317.76 0.20ZM317.76-2.32Q320-2.32 321.78-3.34Q323.56-4.36 324.56-6.24Q325.56-8.12 325.56-10.52L325.56-10.52Q325.56-12.92 324.56-14.80Q323.56-16.68 321.78-17.70Q320-18.72 317.76-18.72L317.76-18.72Q315.52-18.72 313.74-17.70Q311.96-16.68 310.94-14.80Q309.92-12.92 309.92-10.52L309.92-10.52Q309.92-8.12 310.94-6.24Q311.96-4.36 313.74-3.34Q315.52-2.32 317.76-2.32L317.76-2.32Z M355-21.04L357.72-21.04L357.72-2.56Q357.72 2.80 355.10 5.38Q352.48 7.96 347.20 7.96L347.20 7.96Q344.28 7.96 341.66 7.10Q339.04 6.24 337.40 4.72L337.40 4.72L338.84 2.56Q340.36 3.92 342.54 4.68Q344.72 5.44 347.12 5.44L347.12 5.44Q351.12 5.44 353 3.58Q354.88 1.72 354.88-2.20L354.88-2.20L354.88-4.88Q353.56-2.88 351.42-1.84Q349.28-0.80 346.68-0.80L346.68-0.80Q343.72-0.80 341.30-2.10Q338.88-3.40 337.50-5.74Q336.12-8.08 336.12-11.04L336.12-11.04Q336.12-14 337.50-16.32Q338.88-18.64 341.28-19.92Q343.68-21.20 346.68-21.20L346.68-21.20Q349.36-21.20 351.52-20.12Q353.68-19.04 355-17L355-17L355-21.04ZM346.96-3.32Q349.24-3.32 351.08-4.30Q352.92-5.28 353.94-7.04Q354.96-8.80 354.96-11.04L354.96-11.04Q354.96-13.28 353.94-15.02Q352.92-16.76 351.10-17.74Q349.28-18.72 346.96-18.72L346.96-18.72Q344.68-18.72 342.86-17.76Q341.04-16.80 340.02-15.04Q339-13.28 339-11.04L339-11.04Q339-8.80 340.02-7.04Q341.04-5.28 342.86-4.30Q344.68-3.32 346.96-3.32L346.96-3.32Z M369.68 0L369.68-21.04L372.52-21.04L372.52 0L369.68 0ZM371.12-25.64Q370.24-25.64 369.64-26.24Q369.04-26.84 369.04-27.68L369.04-27.68Q369.04-28.48 369.64-29.08Q370.24-29.68 371.12-29.68L371.12-29.68Q372.00-29.68 372.60-29.10Q373.20-28.52 373.20-27.72L373.20-27.72Q373.20-26.84 372.60-26.24Q372.00-25.64 371.12-25.64L371.12-25.64Z M402.80-10.52L402.76-9.64L385.16-9.64Q385.40-6.36 387.68-4.34Q389.96-2.32 393.44-2.32L393.44-2.32Q395.40-2.32 397.04-3.02Q398.68-3.72 399.88-5.08L399.88-5.08L401.48-3.24Q400.08-1.56 397.98-0.68Q395.88 0.20 393.36 0.20L393.36 0.20Q390.12 0.20 387.62-1.18Q385.12-2.56 383.72-5Q382.32-7.44 382.32-10.52L382.32-10.52Q382.32-13.60 383.66-16.04Q385.00-18.48 387.34-19.84Q389.68-21.20 392.60-21.20L392.60-21.20Q395.52-21.20 397.84-19.84Q400.16-18.48 401.48-16.06Q402.80-13.64 402.80-10.52L402.80-10.52ZM392.60-18.76Q389.56-18.76 387.50-16.82Q385.44-14.88 385.16-11.76L385.16-11.76L400.08-11.76Q399.80-14.88 397.74-16.82Q395.68-18.76 392.60-18.76L392.60-18.76Z M418.24 0.20Q415.68 0.20 413.34-0.54Q411-1.28 409.68-2.40L409.68-2.40L410.96-4.64Q412.28-3.60 414.28-2.94Q416.28-2.28 418.44-2.28L418.44-2.28Q421.32-2.28 422.70-3.18Q424.08-4.08 424.08-5.72L424.08-5.72Q424.08-6.88 423.32-7.54Q422.56-8.20 421.40-8.54Q420.24-8.88 418.32-9.20L418.32-9.20Q415.76-9.68 414.20-10.18Q412.64-10.68 411.54-11.88Q410.44-13.08 410.44-15.20L410.44-15.20Q410.44-17.84 412.64-19.52Q414.84-21.20 418.76-21.20L418.76-21.20Q420.80-21.20 422.84-20.66Q424.88-20.12 426.20-19.24L426.20-19.24L424.96-16.96Q422.36-18.76 418.76-18.76L418.76-18.76Q416.04-18.76 414.66-17.80Q413.28-16.84 413.28-15.28L413.28-15.28Q413.28-14.08 414.06-13.36Q414.84-12.64 416-12.30Q417.16-11.96 419.20-11.60L419.20-11.60Q421.72-11.12 423.24-10.64Q424.76-10.16 425.84-9Q426.92-7.84 426.92-5.80L426.92-5.80Q426.92-3.04 424.62-1.42Q422.32 0.20 418.24 0.20L418.24 0.20Z"/></g>
</svg>
</g><g opacity="1" transform="rotate(0 454.8487 333.4458)">
<svg width="260.1513" height="48.9619" x="454.8487" y="333.4458" version="1.1" preserveAspectRatio="none" viewBox="0.918 -28.9453 200.7031 37.773399999999995">
  <g transform="matrix(1 0 0 1 0 0)" class="companyName"><path id="id-D6z1nYkh11" d="M8.42-5.66L8.42-5.66Q8.42-4.00 9.21-3.08Q10-2.15 11.39-2.15L11.39-2.15L12.29-2.15Q13.83-2.15 14.97-3.97Q16.11-5.80 16.11-8.48L16.11-8.48L16.11-9.79Q16.11-12.75 14.93-14.53Q13.75-16.31 12.03-16.31L12.03-16.31L11.70-16.31Q9.77-16.31 9.02-14.99Q8.28-13.67 8.28-9.47L8.28-9.47L8.28-9.08L8.30-8.89L8.30-7.93L8.32-7.73Q8.32-7.54 8.32-7.34L8.32-7.34L8.40-6.04Q8.42-5.84 8.42-5.66ZM4.94-0.16L4.94-0.16Q3.52-0.16 3.06-0.65Q2.60-1.15 2.60-1.86Q2.60-2.56 2.97-4.89Q3.34-7.23 3.34-8.11L3.34-8.11L3.36-8.57L3.36-10.49L3.38-11.45L3.38-14.82Q3.38-22.38 3.18-23.48Q2.99-24.57 2.23-25.18L2.23-25.18Q0.92-26.23 0.92-26.58L0.92-26.58Q0.92-27.40 2.46-27.81L2.46-27.81Q4.73-28.42 6.11-28.42L6.11-28.42L6.56-28.42Q8.01-28.42 8.30-27.27L8.30-27.27Q8.50-26.48 8.50-22.71Q8.50-18.95 8.59-18.52L8.59-18.52Q8.75-17.83 9.61-17.83L9.61-17.83Q9.61-17.83 10.12-18.01L10.12-18.01Q12.44-18.83 14.08-18.83L14.08-18.83Q17.62-18.83 19.69-16.20Q21.76-13.57 21.76-9.84L21.76-9.84L21.76-9.36Q21.76-7.36 20.94-5.45L20.94-5.45Q19.36-1.72 15.94-0.35L15.94-0.35Q14.08 0.39 12.30 0.39L12.30 0.39L11.84 0.39Q11.25 0.39 10.04 0.14Q8.83-0.12 7.58-0.12L7.58-0.12L7.15-0.16Q6.48-0.21 6.27-0.21L6.27-0.21L5.82-0.20Q5.23-0.16 4.94-0.16Z M41.58-18.87L42.19-18.87Q44.84-18.87 44.84-17.48L44.84-17.48Q44.84-16.97 43.96-16.01Q43.07-15.04 42.51-13.88Q41.95-12.71 38.47-4.17Q34.98 4.38 34.02 5.94L34.02 5.94Q32.23 8.83 29.18 8.83L29.18 8.83Q28.03 8.83 26.97 8.23Q25.92 7.64 25.92 6.74Q25.92 5.84 26.59 5.24Q27.27 4.65 28.38 4.65L28.38 4.65Q30.20 4.65 31.35 3.41Q32.50 2.17 32.50 0.78Q32.50-0.61 31.82-2.17L31.82-2.17Q27.03-13.07 26.72-13.69Q26.41-14.32 25.24-15.61Q24.08-16.89 24.08-17.87Q24.08-18.85 29.53-18.85L29.53-18.85Q31.29-18.85 31.96-18.64Q32.64-18.44 32.64-17.48L32.64-17.48Q32.64-17.13 32.37-16.57Q32.11-16.02 32.11-15.48Q32.11-14.94 33.07-11.86Q34.02-8.77 34.73-7.42Q35.43-6.07 35.61-6.07L35.61-6.07Q36.23-6.07 38.18-11.68L38.18-11.68Q38.75-13.30 38.75-15.51L38.75-15.51Q38.75-16.02 38.43-16.58Q38.11-17.15 38.11-17.59Q38.11-18.03 38.55-18.45Q39.00-18.87 41.58-18.87L41.58-18.87Z M66.25-27.48L66.95-27.48Q72.17-27.48 73.96-26.56L73.96-26.56Q75.31-25.88 75.31-23.05Q75.31-20.21 74.36-20.21L74.36-20.21Q73.57-20.21 71.80-21.87Q70.02-23.52 69.10-24.02Q68.18-24.53 66.71-24.53Q65.23-24.53 64.19-23.57Q63.14-22.62 63.14-21.29L63.14-21.29Q63.14-19.51 65.10-18.11L65.10-18.11Q66.07-17.40 69.61-15.82Q73.14-14.24 74.65-12.71L74.65-12.71Q76.78-10.55 76.78-7.83L76.78-7.83Q76.78-2.17 71.17-0.20L71.17-0.20Q69.51 0.39 67.77 0.39L67.77 0.39L67.07 0.39Q64.92 0.39 62.30-0.10Q59.69-0.59 59.00-1.05L59.00-1.05Q57.73-1.93 57.73-5.14L57.73-5.14L57.73-5.80Q57.73-7.87 58.85-7.87L58.85-7.87Q59.63-7.87 61.33-5.88Q63.03-3.89 64.19-3.22Q65.35-2.56 67.16-2.56Q68.96-2.56 70.20-3.59Q71.43-4.63 71.43-5.84L71.43-5.84Q71.43-7.66 70.33-8.83Q69.24-10 65.98-11.50Q62.71-13.01 61.46-13.93L61.46-13.93Q58.03-16.46 58.03-20.02L58.03-20.02Q58.03-20.76 58.18-21.56L58.18-21.56Q58.83-24.92 62.50-26.64L62.50-26.64Q64.30-27.48 66.25-27.48L66.25-27.48Z M89.28-16.74L89.28-16.74L88.91-16.74Q87.23-16.74 86.16-14.84Q85.10-12.95 85.10-10.31L85.10-10.31L85.10-9.22Q85.10-6.25 86.33-4.20Q87.56-2.15 89.28-2.15L89.28-2.15L89.65-2.15Q91.15-2.15 92.28-3.68Q93.40-5.21 93.40-7.77L93.40-7.77L93.44-8.18L93.46-9.00L93.46-9.22L93.44-9.43L93.44-9.84Q93.40-10.27 93.40-10.47L93.40-10.47Q93.40-13.07 92.17-14.90Q90.94-16.74 89.28-16.74ZM89.30-19.34L89.30-19.34L90.27-19.34Q92.01-19.34 93.85-18.52L93.85-18.52Q97.34-16.95 98.65-13.44L98.65-13.44Q99.32-11.62 99.32-9.73L99.32-9.73L99.32-9.38Q99.32-7.34 98.50-5.39Q97.68-3.44 96.29-2.15L96.29-2.15Q93.40 0.47 89.65 0.47L89.65 0.47Q89.36 0.47 89.06 0.45L89.06 0.45Q87.19 0.45 85.38-0.30Q83.57-1.05 82.42-2.30L82.42-2.30Q79.94-5.04 79.94-9.16L79.94-9.16L79.94-9.49L79.96-9.82Q79.98-11.64 80.64-13.42L80.64-13.42Q81.93-16.82 85.37-18.44L85.37-18.44Q87.30-19.34 89.30-19.34Z M102.05-27.09L102.05-27.09Q102.05-27.79 103.07-28.11L103.07-28.11Q105.82-28.95 108.34-28.95L108.34-28.95Q109.82-28.95 109.98-27.66L109.98-27.66Q110.02-27.34 110.02-17.19Q110.02-7.03 110.36-5.19Q110.70-3.34 111.29-2.68L111.29-2.68Q112.77-1.00 112.77-0.92L112.77-0.92Q112.77 0.02 107.54 0.02L107.54 0.02L107.15 0.02L106.74 0Q103.61 0 103.00-0.16Q102.38-0.31 102.38-0.89Q102.38-1.46 103.34-2.65Q104.30-3.83 104.55-5.15Q104.80-6.46 104.80-14.90Q104.80-23.34 104.53-24.27Q104.26-25.20 103.15-25.91Q102.05-26.62 102.05-27.09Z M117.77-24.82L117.77-25.33Q117.77-26.46 118.66-27.25Q119.55-28.03 120.59-28.03L120.59-28.03L121.21-28.03Q121.50-27.97 121.70-27.97L121.70-27.97Q122.64-27.97 123.36-27.13Q124.08-26.29 124.08-25.53L124.08-25.53L124.08-25.02Q124.04-24.82 124.04-24.73L124.04-24.73Q124.04-23.91 123.13-23.13Q122.21-22.34 121.09-22.34L121.09-22.34L120.49-22.34Q119.39-22.34 118.60-23.04Q117.81-23.73 117.81-24.63L117.81-24.63L117.77-24.82ZM121.48 0.08L121.48 0.08L119.63 0.08Q117.03 0.08 116.51-0.07Q116.00-0.21 116.00-0.91Q116.00-1.60 116.97-2.58Q117.95-3.55 118.20-4.54Q118.46-5.53 118.46-9.68Q118.46-13.83 118.24-14.57Q118.03-15.31 116.90-15.85Q115.78-16.39 115.78-17.14Q115.78-17.89 116.82-18.24L116.82-18.24Q119.16-19.02 121.99-19.02L121.99-19.02L122.29-19.02Q123.42-19.02 123.59-18.07L123.59-18.07Q123.69-17.52 123.69-11.51Q123.69-5.51 123.96-4.48Q124.22-3.46 125.31-2.30Q126.41-1.15 126.41-0.86L126.41-0.86L126.41-0.63Q126.41 0.08 121.48 0.08Z M129.69-16.21Q128.83-16.80 128.83-17.35Q128.83-17.91 129.86-18.46Q130.90-19.00 131.15-19.34Q131.41-19.67 131.96-21.17Q132.52-22.68 133.14-23.49Q133.77-24.30 134.79-24.30Q135.80-24.30 136.25-23.48L136.25-23.48Q136.45-23.11 136.77-21.72Q137.09-20.33 137.54-19.94Q137.99-19.55 139.26-19.07Q140.53-18.59 140.57-18.57L140.57-18.57Q141.23-18.05 141.23-17.32L141.23-17.32Q141.23-16.70 139.38-16.21Q137.54-15.72 137.02-14.73Q136.50-13.73 136.50-9.75Q136.50-5.76 137.12-4.57Q137.73-3.38 139.14-3.38L139.14-3.38L139.84-3.44Q140.31-3.48 140.86-3.48L140.86-3.48Q142.05-3.48 142.05-2.58L142.05-2.58Q142.05-1.43 140.61-0.74L140.61-0.74Q138.54 0.23 136.23 0.23L136.23 0.23Q135.16 0.23 134.08-0.35Q133.01-0.94 132.44-1.78L132.44-1.78Q131.33-3.42 131.33-6.46L131.33-6.46L131.31-6.88Q131.29-7.30 131.29-7.83L131.29-7.83L131.29-8.98Q131.29-12.36 130.74-14.75L130.74-14.75Q130.55-15.63 129.69-16.21Z M154.24-2.42L154.24-2.42L154.57-2.42Q156.35-2.42 157.21-3.77L157.21-3.77Q157.79-4.69 157.79-7.89L157.79-7.89L157.79-10.61Q157.79-13.98 157.10-15.22Q156.41-16.46 154.41-16.46L154.41-16.46L154.24-16.46Q152.44-16.46 151.21-14.62Q149.98-12.77 149.98-10.08L149.98-10.08L149.98-8.81Q149.98-6.31 150.94-4.71L150.94-4.71Q152.30-2.42 154.24-2.42ZM157.07-18.69L157.07-18.69Q157.99-18.69 157.99-20.80L157.99-20.80Q157.99-24.24 156.50-25.55L156.50-25.55Q155.39-26.50 155.39-26.82L155.39-26.82Q155.39-27.44 157.23-28.03Q159.06-28.61 160.57-28.61Q162.07-28.61 162.53-28.28Q162.99-27.95 163.15-26.84Q163.32-25.72 163.32-16.01Q163.32-6.29 163.54-5.03Q163.75-3.77 164.34-3.05L164.34-3.05Q164.38-2.99 165.08-2.48Q165.78-1.97 165.78-1.64L165.78-1.64L165.78-1.31Q165.78-1.02 165.39-0.68L165.39-0.68Q164.22 0.29 160.33 0.29L160.33 0.29Q159.32 0.29 158.77-0.41Q158.22-1.11 158.18-1.11L158.18-1.11Q157.81-1.09 156.91-0.63L156.91-0.63Q154.82 0.51 153.05 0.51L153.05 0.51Q153.01 0.51 152.99 0.51L152.99 0.51L152.48 0.51Q151.05 0.51 149.65-0.16L149.65-0.16Q146.74-1.52 145.55-4.84L145.55-4.84Q144.94-6.56 144.94-8.30L144.94-8.30L144.94-8.83Q144.94-8.89 144.94-8.93L144.94-8.93Q144.94-11.17 145.74-13.14L145.74-13.14Q148.03-18.83 154.10-18.83L154.10-18.83Q155.61-18.83 155.88-18.81L155.88-18.81L156.29-18.77Q156.95-18.69 157.07-18.69Z M170.76-24.82L170.76-25.33Q170.76-26.46 171.65-27.25Q172.54-28.03 173.57-28.03L173.57-28.03L174.20-28.03Q174.49-27.97 174.69-27.97L174.69-27.97Q175.63-27.97 176.35-27.13Q177.07-26.29 177.07-25.53L177.07-25.53L177.07-25.02Q177.03-24.82 177.03-24.73L177.03-24.73Q177.03-23.91 176.11-23.13Q175.20-22.34 174.08-22.34L174.08-22.34L173.48-22.34Q172.38-22.34 171.59-23.04Q170.80-23.73 170.80-24.63L170.80-24.63L170.76-24.82ZM174.47 0.08L174.47 0.08L172.62 0.08Q170.02 0.08 169.50-0.07Q168.98-0.21 168.98-0.91Q168.98-1.60 169.96-2.58Q170.94-3.55 171.19-4.54Q171.45-5.53 171.45-9.68Q171.45-13.83 171.23-14.57Q171.02-15.31 169.89-15.85Q168.77-16.39 168.77-17.14Q168.77-17.89 169.80-18.24L169.80-18.24Q172.15-19.02 174.98-19.02L174.98-19.02L175.27-19.02Q176.41-19.02 176.58-18.07L176.58-18.07Q176.68-17.52 176.68-11.51Q176.68-5.51 176.94-4.48Q177.21-3.46 178.30-2.30Q179.39-1.15 179.39-0.86L179.39-0.86L179.39-0.63Q179.39 0.08 174.47 0.08Z M191.58-16.74L191.58-16.74L191.21-16.74Q189.53-16.74 188.47-14.84Q187.40-12.95 187.40-10.31L187.40-10.31L187.40-9.22Q187.40-6.25 188.63-4.20Q189.86-2.15 191.58-2.15L191.58-2.15L191.95-2.15Q193.46-2.15 194.58-3.68Q195.70-5.21 195.70-7.77L195.70-7.77L195.74-8.18L195.76-9.00L195.76-9.22L195.74-9.43L195.74-9.84Q195.70-10.27 195.70-10.47L195.70-10.47Q195.70-13.07 194.47-14.90Q193.24-16.74 191.58-16.74ZM191.60-19.34L191.60-19.34L192.58-19.34Q194.32-19.34 196.15-18.52L196.15-18.52Q199.65-16.95 200.96-13.44L200.96-13.44Q201.62-11.62 201.62-9.73L201.62-9.73L201.62-9.38Q201.62-7.34 200.80-5.39Q199.98-3.44 198.59-2.15L198.59-2.15Q195.70 0.47 191.95 0.47L191.95 0.47Q191.66 0.47 191.37 0.45L191.37 0.45Q189.49 0.45 187.69-0.30Q185.88-1.05 184.73-2.30L184.73-2.30Q182.25-5.04 182.25-9.16L182.25-9.16L182.25-9.49L182.27-9.82Q182.29-11.64 182.95-13.42L182.95-13.42Q184.24-16.82 187.68-18.44L187.68-18.44Q189.61-19.34 191.60-19.34Z"/></g>
</svg>
</g></svg>